<svg xmlns="http://www.w3.org/2000/svg" viewBox="0 0 128 128"><title>Anthurium-Flower</title><g id="Anthurium-Flower"><g id="Anthurium-Flower-2" data-name="Anthurium-Flower"><path d="M73.13,48.09c-.43-3.66-.85-7-1.29-10.11-3.14-22.16-6.72-28.27-13.75-7.85a81.58,81.58,0,0,1-3,8.83c-1.34,3.28-3.05,6.65-5,8.49a4.79,4.79,0,0,1-2.29,1.35,2.75,2.75,0,0,1-.94,0l-.06.09a4.24,4.24,0,0,1-.33-.53A6.32,6.32,0,0,1,46.07,45a28,28,0,0,1,2.49-7.94C50.78,32,54.06,26,56.64,20c6.9-14.65-6.06-6.91-17.08,3.45q-.93.88-1.84,1.77c-7.8,3-14.34,11.67-18.83,21.14a74.7,74.7,0,0,0-5.76,17.23q-.44,1.16-.82,2.32A57.61,57.61,0,0,0,9.72,79.07a69.53,69.53,0,0,0-.07,10,81.35,81.35,0,0,0,1.12,9.18A90.42,90.42,0,0,0,13,107.67a72.72,72.72,0,0,0,3.43,9.52s3.27-3.2,8.3-7.32c2.14-1.75,4.6-3.67,7.25-5.58a105,105,0,0,1,9.46-6.1h0c1.3-.73,2.61-1.43,3.92-2.07a18.79,18.79,0,0,0,3.43-2,67,67,0,0,0,10.73-9.71c5.23-5.78,10.34-13.13,12.83-20.85A27.09,27.09,0,0,0,73.13,48.09Z" fill="#449159"/><path d="M46.57,48.47a4,4,0,0,0,.25.43l.29-.47Z" fill="#87c16d"/><path d="M45.32,22.84a2.16,2.16,0,0,1,.8.71c2.16,3.21,2.62,7.49,2.54,11,0,1-.09,1.92-.18,2.74l.08-.18.08-.17c.35-3.73.3-9.44-2.41-13.47a2.27,2.27,0,0,0-.83-.75c-1.38-.72-3.58-.23-5.69.6l-.13.13-.13.13C41.61,22.67,43.93,22.09,45.32,22.84Z" fill="#87c16d"/><path d="M33.25,36.78a6.69,6.69,0,0,1,5.06.76A21.71,21.71,0,0,1,44.46,43c.64.79,1.19,1.54,1.61,2.14v-.22c-1.48-2.1-4.39-5.77-7.71-7.53a6.78,6.78,0,0,0-5.14-.76c-5.05,1.49-11.4,6.92-14.28,9.56l-.05.05-.08.23h0l.17-.16C21.86,43.69,28.23,38.25,33.25,36.78Z" fill="#87c16d"/><path d="M46.5,48.34c-4.71.43-24.59,3.07-34.12,17.34l-.07.21-.06.2c5.2-8,13.7-12.44,21.06-14.85a63.29,63.29,0,0,1,10-2.37c1.29-.2,2.34-.32,3.07-.38l.2,0,0-.07Z" fill="#87c16d"/><path d="M68.38,34.16a8.35,8.35,0,0,1,3.49,4.05l0-.23,0-.22A8.18,8.18,0,0,0,68.45,34c-4.58-2.41-10.48,2.18-13.3,4.8L55.1,39l-.06.14C57.78,36.52,63.79,31.73,68.38,34.16Z" fill="#87c16d"/><path d="M63.77,47.12a3.82,3.82,0,0,0-.8-.32c-4-1.11-10.41.06-12.74.56l-.09.09-.1.09.72-.15c2.65-.54,8.42-1.48,12.16-.45a3.79,3.79,0,0,1,.78.31c2.5,1.32,4.69,5.51,6.24,9.38.78,1.93,1.39,3.78,1.82,5.15.27.86.46,1.52.56,1.9l0-.11,0-.12C71.67,60.91,68.27,49.51,63.77,47.12Z" fill="#87c16d"/><path d="M55.14,59.25a72.59,72.59,0,0,0-7.2-10.47l-.08,0h-.08c.52.65,1.49,1.87,2.59,3.34A53.65,53.65,0,0,1,55,59.35a61.45,61.45,0,0,1,3.74,13.06c.86,4.59,1.3,9.25.68,12.09l.08-.08.08-.09c.58-2.91.13-7.47-.71-12A61.55,61.55,0,0,0,55.14,59.25Z" fill="#87c16d"/><path d="M39.06,62.41c1.26-2.2,2.45-4.24,3.53-6.06,1.63-2.76,3-5,4-6.58l.56-.91-.2,0-.07.11,0,0c-1.51,2.44-4.48,7.3-8,13.44-1.84.25-19.77,3-29.1,16.61v.12s0,.08,0,.12c4.61-6.84,11.42-11,17.31-13.39a53.56,53.56,0,0,1,8.43-2.68c1.65-.38,2.82-.56,3.29-.62-2.4,4.19-5,9-7.65,14-.91.14-13.52,2.24-21.45,12.5v.18a33,33,0,0,1,12.89-9.88,39.47,39.47,0,0,1,6.09-2.13c1.23-.32,2.08-.47,2.38-.52l-.37.71c-1.91,3.69-3.79,7.48-5.53,11.24a35.54,35.54,0,0,0-14.36,9.6v.15a36.77,36.77,0,0,1,7.77-6.45,34.34,34.34,0,0,1,4.91-2.53c.7-.29,1.25-.48,1.58-.6-1.71,3.7-3.27,7.37-4.59,10.86l0,0a48.64,48.64,0,0,0-7.44,8l0,.07,0,.07a42.67,42.67,0,0,1,3.89-4.62c1-1,1.88-1.87,2.52-2.45.46-.41.79-.7.94-.83-2.54,6.78-4.13,12.9-3.95,17.36l.24-.23c-.13-4.35,1.43-10.35,3.92-17a15.08,15.08,0,0,1,3.57,6.92,21.43,21.43,0,0,1,.49,2.84l0,.23.06,0,.06,0c-.19-2-1-6.81-4.14-10,1.34-3.57,3-7.34,4.71-11.14l.08,0c2.32,1.58,4,5.61,5,9.25.53,1.82.91,3.55,1.16,4.82.14.72.24,1.29.3,1.65l.07-.05,0,0c-.39-2.33-2.33-12.94-6.53-15.78H25.4c1.71-3.69,3.56-7.42,5.43-11l.36-.68c2.64,1.84,5.16,7.09,7,11.92.94,2.45,1.72,4.79,2.26,6.52s.84,2.84.84,2.84l.12-.07s-4.77-17.6-10.17-21.35c2.63-5,5.3-9.86,7.71-14.08,4.76,3.79,7.2,11.78,8.45,18.85a90.57,90.57,0,0,1,1.13,9.32c.11,1.6.15,2.82.17,3.46l.06,0,.06,0C48.75,90.37,47.81,69.38,39.06,62.41Z" fill="#87c16d"/><path d="M117.29,73.24l0-.12c-1.21-4-3.68-6.69-3.61-11.26a13.88,13.88,0,0,1,.27-2.51c1.23-6.25-1.61-11.88-3.58-13.69-.9-.83-1.32-2.44-1.61-4.52-.57-4.21-.57-10.38-2.79-16.12a21.1,21.1,0,0,0-4.71-7.39c-.75-.75-2.65-1.28-4.88-1.22-4.77.14-11.09,3-11.09,12.19a44.88,44.88,0,0,0,1.46,8.8c.66,2.76,1.37,5.37,1.75,7,.1.41.17.75.22,1A12.85,12.85,0,0,1,88,49.82c-.61,2.33-1.47,4.77-1.82,5.73l.05.13a11.12,11.12,0,0,1-4.2-2.7,7.69,7.69,0,0,1-2.16-5.14c0-.89-.09-1.79-.18-2.7C79.22,40,77.64,35,74.91,33.83c-5.1-2.09-10.48.61-13.09,5.57a14.76,14.76,0,0,0-1,11.08c.22.76.44,1.46.67,2.12,2.34,6.76,5,8.44,6.93,9.3,2.2,1,3.4.91,2,6.16C68.3,75.8,68.95,82,71.29,86.91a22.89,22.89,0,0,0,7.35,8.63,29.55,29.55,0,0,0,3.78,2.33,32.59,32.59,0,0,1,5,3.2,37.19,37.19,0,0,1,5.94,5.81,39,39,0,0,1,4.88,7.57,31.63,31.63,0,0,1,1.89,4.78c2.15,7.21,3.17,6.76,3.17,6.76s.54-1.29,1.24-3.26c-.32.94-.66,1.9-1.05,2.92,1.06-2,6.51-12.2,9.92-19.38,1.13-2.38,2-4.43,2.48-5.73a46,46,0,0,0,1.43-5.18A55.28,55.28,0,0,0,118.49,83,39.15,39.15,0,0,0,117.29,73.24Zm-21.76-.46c-.72-1-1.47-2.2-2.23-3.5C94,70.41,94.71,71.56,95.52,72.78Z" fill="#46874e"/><path d="M87.26,101.93h0ZM64.77,48.08C67.93,44.87,73,42.91,80.31,50l-.07-.22-.05-.21C73,42.75,67.9,44.68,64.69,47.95a18.68,18.68,0,0,0-3.19,4.56l0,.1,0,.09.21-.41A18.15,18.15,0,0,1,64.77,48.08Zm6.6,4.71c-2.26,2.32-2.86,6.3-3,9.08l.08,0,.08,0c.12-2.76.7-6.79,2.9-9,2-2,5.31-2.67,10.89.3L82.08,53l-.2-.22C76.62,50.11,73.38,50.76,71.37,52.8Zm8.27-7.63.12.22c0-.08,0-.17,0-.25s0-.17,0-.25c-4.12-7.25-8.54-8.75-12.15-8.22a12.52,12.52,0,0,0-5.65,2.57l-.1.18-.08.17C64.9,37,72.68,32.78,79.65,45.17ZM92.08,45a47.21,47.21,0,0,0-4,4.66l0,.19L88,50l.29-.39a46.57,46.57,0,0,1,3.87-4.51c4.5-4.57,11-9,16.59-3.8l0-.17,0-.17C103.12,36,96.56,40.4,92.08,45ZM93.7,18.51a11.23,11.23,0,0,1,2.82-2.11h-.37a11.59,11.59,0,0,0-2.53,2c-4.77,4.88-6.42,13.86-7,18.79l.05.23.05.23C87.26,32.85,88.86,23.44,93.7,18.51Zm3.56,10.23c-4.43,4.52-7.48,11.79-8.84,15.49l0,.13,0,.13c1.3-3.6,4.39-11.07,8.86-15.61,2.47-2.51,5.36-4.14,8.63-3.77l0-.11,0-.11C102.63,24.59,99.73,26.24,97.26,28.75ZM86.5,55.69l-.17-.42-.1.28.05.13L86,55.58l.33.83q-.6.54-1.17,1.12c-8.3,8.46-12.46,22.79-14,29.22l.07.16,0,.06.11-.45c.3-1.26.7-2.81,1.21-4.54,2.1-7.17,6-17.52,12.53-24.2l.12-.12c.37-.38.76-.75,1.15-1.11a84.5,84.5,0,0,0,4.32,8.83,9.77,9.77,0,0,0-1.4,1.19c-5.9,6-9.52,22.15-10.82,28.89l.1.07,0,0,.2-1c.14-.68.29-1.42.46-2.22C81,84.66,84.4,71.83,89.43,66.72l.08-.07a9.33,9.33,0,0,1,1.33-1.11l.05.09c1.24,2.21,2.73,4.67,4.5,7.31.36.62.73,1.27,1.11,1.93l-.1.1c-1.94,2-4.23,8.7-6.08,15-1.4,4.75-2.52,9.21-3,11.09l.07.06.06,0c.16-.64.4-1.62.72-2.85.22-.86.48-1.84.76-2.89.82-3,1.86-6.72,3-10.14,1.51-4.61,3.18-8.75,4.54-10.14l.1-.1,0,.06.09.17A104.7,104.7,0,0,1,102,85.93a5.66,5.66,0,0,0-.46.42c-2.19,2.24-4.31,7.62-5.9,12.45-1.1,3.34-1.94,6.42-2.36,8l.07.09,0,.06c.12-.46.28-1.06.48-1.77.14-.53.31-1.11.49-1.75,1.55-5.38,4.41-14.05,7.25-16.93l.12-.11.33-.29a59.51,59.51,0,0,1,4,13.43c.18.94.36,1.83.54,2.7l-.32.31c-2.6,2.65-7,10-8.08,11.85l0,.08,0,.08c.43-.73,1.53-2.58,2.85-4.65a52.28,52.28,0,0,1,5.23-7.21l.28-.28c1.11,5.63,1.67,10.58-3.45,23.6a.17.17,0,0,0,.11,0s.66-1.57,1.47-3.93c-.38,1.13-.81,2.32-1.28,3.59l.57-1.06c4.68-12.36,4-17.25,2.83-22.88l.4.06a8.38,8.38,0,0,1,5.8,4.08c.1.17.19.35.28.54l.05-.11.06-.12c-.08-.16-.16-.31-.24-.46a8.55,8.55,0,0,0-6.39-4.2l-.05-.26q-.3-1.8-.69-3.63c-.32-1.61-.72-3.2-1.19-4.78a69.59,69.59,0,0,0-2.54-7.07l-.23-.55h.16c.27,0,.71,0,1.28,0l.58,0h.16a20.43,20.43,0,0,1,4.26.94l.24.08,0,0a13,13,0,0,1,7.11,5.81,13.67,13.67,0,0,1,1.32,3.38l0-.2,0-.21A13.61,13.61,0,0,0,116.08,92c-3.89-6.91-12.53-7-13.89-7H102a106.94,106.94,0,0,0-4.95-9.92L97,74.94l-.34-.61c.44,0,1.24,0,2.3,0,4.8.13,14.82,1.35,19.55,8.9,0-.06,0-.13,0-.19s0-.13,0-.2c-6.05-9.26-20-8.79-22-8.69l-.87-1.51c-1.77-2.64-3.25-5.09-4.49-7.3l-.27-.49c.5-.09,1.49-.26,2.84-.38,5.61-.52,17.23-.29,23.59,9l-.05-.19,0-.12-.1-.31c-8.2-11.24-24.26-8.55-26.34-8.15-.41-.75-.79-1.46-1.15-2.15-.78-1.55-1.47-3-2-4.13-.29-.64-.55-1.23-.77-1.76l-.32-.77c15.22-7.39,24,1.92,27.08,6.19,0-.06,0-.12,0-.18s0-.11,0-.17C110.46,57.32,101.62,48.32,86.5,55.69Z" fill="#87c16d"/><path d="M72.88,2.43C70.8,4.45,69.18,14.12,69,16c-.84-2.68-3.23-9.7-6-12-3.44-2.86-11.12.06-15.39,4.45C38,18.42,43,28.84,45,37S66.08,58.92,67.7,59.58,74,67.42,74,67.42l.36-.24,0-.09,0,.07c1.7-1.25,8.87-6.81,8.93-12,.07-5.88,11-11.94,9.23-17.36s-1-11.08,1.47-19.17C97.44,7.5,75.25.11,72.88,2.43Z" fill="#f7727e"/><path d="M74.55,28s7.39-3.66,9.56-.71,6.79,6.2,5.23,12.2-2.12,6-2.12,6,2.45-8.58-2.22-14C81.25,27.24,74.55,28,74.55,28Z" fill="#f0606d"/><path d="M75.34,31.4s7.84,2.36,8.57,8.58-1.33,7.41-2,11.22L81.22,55s-1.67-9.14-1.16-12S81.07,35,75.34,31.4Z" fill="#f0606d"/><path d="M74.87,32.34S78.59,43,78.21,50.63c-.26,5.23-.55,6.48-2.63,13,0,0,2-13.48.7-17.25S74.87,32.34,74.87,32.34Z" fill="#f0606d"/><path d="M72.3,29.39s-6.79.29-10,5.19c-1.68,2.55-3.12,7.06-1.45,10.16s5.28,9.9,5.28,9.9-3-8.44-3.1-12.71C62.78,34.91,72.3,29.39,72.3,29.39Z" fill="#f0606d"/><path d="M72.52,27.81S63.8,26.12,59,26.73s-6.79,3.41-6.73,5.84.91,8.73.91,8.73.7-8.76,4.36-11.25S72.52,27.81,72.52,27.81Z" fill="#f0606d"/><path d="M70.14,25.23s-8.55-4.73-12-6.1-5.95-1.94-7.89-.14A9.49,9.49,0,0,0,47,27.33c.25,4.14,3.16-8,7-7.1S70.14,25.23,70.14,25.23Z" fill="#f0606d"/><path d="M70.1,23.36S63.9,14.51,59.47,13s-4.19-2.23-7.76-.73c-2.3,1-4.13,5-4.13,5s4.29-3.84,9.66-2.14C62.86,16.83,70.1,23.36,70.1,23.36Z" fill="#f0606d"/><path d="M70.83,22.75S68.35,13.83,63,8.94c-2.43-2.21-5.84-3.3-7.5-2.3a9.19,9.19,0,0,0-2.7,2.67,11.77,11.77,0,0,1,8.86,1.62C64.69,12.81,70.83,22.75,70.83,22.75Z" fill="#f0606d"/><path d="M72.74,34.17S68.52,40.58,68,43.92c-.65,4.42,1,7,2.34,9.73s3.37,6.06,3.37,6.06a68.5,68.5,0,0,1-2-8.13A40.09,40.09,0,0,1,71,43.81Z" fill="#f0606d"/><path d="M73.38,23.53S83.2,18,87.74,22.71c3.21,3.36.69,4.35,2.2,6.88-2.35-1.9-2.63-4.71-5.55-6.61C81.86,21.35,73.38,23.53,73.38,23.53Z" fill="#f0606d"/><path d="M74.08,21s7.16-8.51,10.17-7.57S91,16.54,91.11,19.6a15.94,15.94,0,0,0,.39,4S89.75,20.33,89.26,19s-3.42-2.79-4.37-3S74.08,21,74.08,21Z" fill="#f0606d"/><path d="M71.83,20.59S72.4,9.9,76.4,6c1-1,5.17-.14,6.12.72S89.41,10,89.8,12.58C87.14,11,81.73,7.68,79.14,8.48S72.63,17.5,71.83,20.59Z" fill="#f0606d"/><path d="M75,31.13a4.94,4.94,0,0,1,2,2,78.59,78.59,0,0,0-3.23-10.8c-1.47-4.1-3.38-4.74-3.38-4.74-4.32-.49-1,4.82-.11,7.79.48,1.51,1.43,4.86,2.53,7.75C72.71,31.81,73.14,30.91,75,31.13Z" fill="#fceba4"/><path d="M76.15,38.22c1.4-.14,1.44-2.32.93-5.08a4.94,4.94,0,0,0-2-2c-1.89-.22-2.33.68-2.14,2C74,35.93,75.14,38.32,76.15,38.22Z" fill="#ffe163"/><ellipse cx="69.53" cy="19.05" rx="0.57" ry="0.57" fill="#fcd532"/><ellipse cx="71.4" cy="20.02" rx="0.57" ry="0.57" fill="#fcd532"/><ellipse cx="70.68" cy="21.78" rx="0.57" ry="0.57" fill="#fcd532"/><ellipse cx="72.53" cy="22.75" rx="0.57" ry="0.57" fill="#fcd532"/><ellipse cx="71.25" cy="24.62" rx="0.57" ry="0.57" fill="#fcd532"/><ellipse cx="73.42" cy="25.35" rx="0.57" ry="0.57" fill="#fcd532"/><ellipse cx="71.97" cy="26.6" rx="0.57" ry="0.57" fill="#fcd532"/><ellipse cx="74.08" cy="27.74" rx="0.57" ry="0.57" fill="#fcd532"/><ellipse cx="72.69" cy="28.89" rx="0.57" ry="0.57" fill="#fcd532"/><ellipse cx="74.87" cy="29.81" rx="0.57" ry="0.57" fill="#fcd532"/><ellipse cx="75.44" cy="32.92" rx="0.57" ry="0.57" fill="#fcd532"/><ellipse cx="75.34" cy="35.23" rx="0.57" ry="0.57" fill="#fcd532"/><ellipse cx="73.73" cy="31.4" rx="0.57" ry="0.57" fill="#fcd532"/><path d="M56.91,8.21a10.61,10.61,0,0,0-1.51,4.54,24.1,24.1,0,0,0-.13,4.75,33.65,33.65,0,0,0,.65,4.71,31.16,31.16,0,0,0,1.28,4.55A27.58,27.58,0,0,0,61.66,35a21,21,0,0,0,7.52,5.78,15.36,15.36,0,0,1-9-4.42c-2.48-2.41-6.54-5.48-7.68-8.71A26.84,26.84,0,0,1,51,17.52a19,19,0,0,1,.9-5.06A12.51,12.51,0,0,1,53,10.12C53.43,9.39,56.25,8.72,56.91,8.21Z" fill="#f7bcc1" opacity="0.2"/><path d="M75.14,6.4A10.47,10.47,0,0,1,78.7,9.58a23.91,23.91,0,0,1,2.46,4.05A33.53,33.53,0,0,1,82.92,18a31.17,31.17,0,0,1,1.14,4.59A27.77,27.77,0,0,1,84.24,32a21.27,21.27,0,0,1-3.66,8.79c2.69-2,6.93-5,7.87-8.34a22.79,22.79,0,0,0,.39-10.27,26.76,26.76,0,0,0-3.69-9.53c-.91-1.45-4.28-2.78-5.55-3.93a12.33,12.33,0,0,0-2.07-1.5A7.07,7.07,0,0,0,75.14,6.4Z" fill="#f7bcc1" opacity="0.2"/></g></g></svg>