<?xml version="1.0" ?><svg viewBox="0 0 19.742 22.465" xmlns="http://www.w3.org/2000/svg"><g data-name="Layer 2" id="Layer_2"><g data-name="Layer 1" id="Layer_1-2"><path d="M13.446,16.062l2.176-2.177A8.159,8.159,0,0,0,9.871,0,8.158,8.158,0,0,0,4.12,13.885l2.18,2.18c-3.443.428-6.3,1.478-6.3,3.09,0,2.15,5.086,3.31,9.871,3.31s9.871-1.16,9.871-3.31C19.742,17.543,16.888,16.49,13.446,16.062ZM2.419,8.134C2.312,1.6,10.6-1.828,15.141,2.864a7.489,7.489,0,0,1,0,10.539l-5.27,5.27L4.6,13.4A7.4,7.4,0,0,1,2.419,8.134ZM9.871,21.785c-9.563-.043-13.251-3.87-2.953-5.1L9.63,19.4a.34.34,0,0,0,.482,0l2.72-2.72C23.124,17.917,19.427,21.744,9.871,21.785Zm4.2-13.651a4.2,4.2,0,0,0-8.4,0A4.2,4.2,0,0,0,14.069,8.134Zm-7.715,0a3.517,3.517,0,0,1,7.034,0A3.517,3.517,0,0,1,6.354,8.134Z" id="location"/></g></g></svg>